<svg xmlns="http://www.w3.org/2000/svg" xmlns:xlink="http://www.w3.org/1999/xlink" width="30cm" height="4cm" viewBox="58 398 583 63"><g><rect style="fill:#fff" width="140" height="60" x="60" y="400"/><rect style="fill:none;fill-opacity:0;stroke-width:2;stroke:#000" width="140" height="60" x="60" y="400"/><text style="fill:#000;text-anchor:middle;font-family:sans-serif;font-style:normal;font-weight:700" x="130" y="433.881" font-size="12.8"><tspan x="130" y="433.881">Problem</tspan></text></g><g><rect style="fill:#fff" width="140" height="60" x="280" y="400"/><rect style="fill:none;fill-opacity:0;stroke-width:2;stroke:#000" width="140" height="60" x="280" y="400"/><text style="fill:#000;text-anchor:middle;font-family:sans-serif;font-style:normal;font-weight:700" x="350" y="433.881" font-size="12.8"><tspan x="350" y="433.881">Solver</tspan></text></g><g><rect style="fill:#fff" width="140" height="60" x="500" y="400"/><rect style="fill:none;fill-opacity:0;stroke-width:2;stroke:#000" width="140" height="60" x="500" y="400"/><text style="fill:#000;text-anchor:middle;font-family:sans-serif;font-style:normal;font-weight:700" x="570" y="433.881" font-size="12.8"><tspan x="570" y="433.881">Result</tspan></text></g><g><line style="fill:none;fill-opacity:0;stroke-width:2;stroke:#000" x1="200" x2="270.264" y1="430" y2="430"/><polygon style="fill:#000" points="277.764 430 267.764 435 270.264 430 267.764 425"/><polygon style="fill:none;fill-opacity:0;stroke-width:2;stroke:#000" points="277.764 430 267.764 435 270.264 430 267.764 425"/></g><g><line style="fill:none;fill-opacity:0;stroke-width:2;stroke:#000" x1="420.99" x2="490.264" y1="430" y2="430"/><polygon style="fill:#000" points="497.764 430 487.764 435 490.264 430 487.764 425"/><polygon style="fill:none;fill-opacity:0;stroke-width:2;stroke:#000" points="497.764 430 487.764 435 490.264 430 487.764 425"/></g></svg>