<svg xmlns="http://www.w3.org/2000/svg" xmlns:xlink="http://www.w3.org/1999/xlink" width="43cm" height="15cm" viewBox="39 -1 843 282"><g><rect style="fill:#fff" width="560" height="280" x="40" y="0"/><rect style="fill:none;fill-opacity:0;stroke-width:2;stroke:#000" width="560" height="280" x="40" y="0"/></g><g><rect style="fill:#fff" width="220" height="60" x="60" y="60"/><rect style="fill:none;fill-opacity:0;stroke-width:2;stroke:#000" width="220" height="60" x="60" y="60"/><text style="fill:#000;text-anchor:middle;font-family:sans-serif;font-style:normal;font-weight:400" x="170" y="93.881" font-size="12.8"><tspan x="170" y="93.881">ElectronicStructureDriver</tspan></text></g><g><rect style="fill:#fff" width="220" height="60" x="360" y="60"/><rect style="fill:none;fill-opacity:0;stroke-width:2;stroke-dasharray:10;stroke:#000" width="220" height="60" x="360" y="60"/><text style="fill:#000;text-anchor:middle;font-family:sans-serif;font-style:italic;font-weight:400" x="470" y="93.881" font-size="12.8"><tspan x="470" y="93.881">GroupedElectronicProperty</tspan></text></g><g><rect style="fill:#fff" width="220" height="60" x="360" y="200"/><rect style="fill:none;fill-opacity:0;stroke-width:2;stroke:#000" width="220" height="60" x="360" y="200"/><text style="fill:#000;text-anchor:middle;font-family:sans-serif;font-style:normal;font-weight:400" x="470" y="233.881" font-size="12.8"><tspan x="470" y="233.881">BaseTransformer</tspan></text></g><g><rect style="fill:#fff" width="220" height="60" x="660" y="60"/><rect style="fill:none;fill-opacity:0;stroke-width:2;stroke-dasharray:10;stroke:#000" width="220" height="60" x="660" y="60"/><text style="fill:#000;text-anchor:middle;font-family:sans-serif;font-style:italic;font-weight:400" x="770" y="93.881" font-size="12.8"><tspan x="770" y="93.881">FermionicOp</tspan></text></g><text style="fill:#000;text-anchor:start;font-family:sans-serif;font-style:normal;font-weight:700" x="80" y="40" font-size="12.8"><tspan x="80" y="40">ElectronicStructureProblem</tspan></text><g><line style="fill:none;fill-opacity:0;stroke-width:2;stroke:#000" x1="280" x2="350.264" y1="90" y2="90"/><polygon style="fill:#000" points="357.764 90 347.764 95 350.264 90 347.764 85"/><polygon style="fill:none;fill-opacity:0;stroke-width:2;stroke:#000" points="357.764 90 347.764 95 350.264 90 347.764 85"/></g><g><line style="fill:none;fill-opacity:0;stroke-width:2;stroke:#000" x1="415" x2="415" y1="120" y2="190.264"/><polygon style="fill:#000" points="415 197.764 410 187.764 415 190.264 420 187.764"/><polygon style="fill:none;fill-opacity:0;stroke-width:2;stroke:#000" points="415 197.764 410 187.764 415 190.264 420 187.764"/></g><g><line style="fill:none;fill-opacity:0;stroke-width:2;stroke:#000" x1="525" x2="525" y1="200" y2="129.736"/><polygon style="fill:#000" points="525 122.236 530 132.236 525 129.736 520 132.236"/><polygon style="fill:none;fill-opacity:0;stroke-width:2;stroke:#000" points="525 122.236 530 132.236 525 129.736 520 132.236"/></g><g><line style="fill:none;fill-opacity:0;stroke-width:2;stroke:#000" x1="580" x2="650.264" y1="90" y2="90"/><polygon style="fill:#000" points="657.764 90 647.764 95 650.264 90 647.764 85"/><polygon style="fill:none;fill-opacity:0;stroke-width:2;stroke:#000" points="657.764 90 647.764 95 650.264 90 647.764 85"/></g></svg>