<svg xmlns="http://www.w3.org/2000/svg" xmlns:xlink="http://www.w3.org/1999/xlink" width="56cm" height="17cm" viewBox="-242 539 1103 323"><g><rect style="fill:#fff" width="520" height="220" x="40" y="540"/><rect style="fill:none;fill-opacity:0;stroke-width:2;stroke:#000" width="520" height="220" x="40" y="540"/></g><text style="fill:#000;text-anchor:start;font-family:sans-serif;font-style:normal;font-weight:700" x="340" y="580" font-size="12.8"><tspan x="340" y="580">GroundStateEigensolver</tspan></text><g><rect style="fill:#fff" width="180" height="140" x="60" y="580"/><rect style="fill:none;fill-opacity:0;stroke-width:2;stroke:#000" width="180" height="140" x="60" y="580"/></g><text style="fill:#000;text-anchor:start;font-family:sans-serif;font-style:normal;font-weight:700" x="94.3" y="620" font-size="12.8"><tspan x="94.3" y="620">QubitConverter</tspan></text><g><rect style="fill:#fff" width="140" height="60" x="80" y="640"/><rect style="fill:none;fill-opacity:0;stroke-width:2;stroke:#000" width="140" height="60" x="80" y="640"/><text style="fill:#000;text-anchor:middle;font-family:sans-serif;font-style:normal;font-weight:400" x="150" y="673.881" font-size="12.8"><tspan x="150" y="673.881">QubitMapper</tspan></text></g><g><rect style="fill:#fff" width="220" height="60" x="-240" y="640"/><rect style="fill:none;fill-opacity:0;stroke-width:2;stroke-dasharray:10;stroke:#000" width="220" height="60" x="-240" y="640"/><text style="fill:#000;text-anchor:middle;font-family:sans-serif;font-style:italic;font-weight:400" x="-130" y="673.881" font-size="12.8"><tspan x="-130" y="673.881">FermionicOp</tspan></text></g><g><rect style="fill:#fff" width="220" height="60" x="180" y="800"/><rect style="fill:none;fill-opacity:0;stroke-width:2;stroke-dasharray:10;stroke:#000" width="220" height="60" x="180" y="800"/><text style="fill:#000;text-anchor:middle;font-family:sans-serif;font-style:italic;font-weight:400" x="290" y="833.881" font-size="12.8"><tspan x="290" y="833.881">QubitOperator</tspan></text></g><g><rect style="fill:#fff" width="220" height="60" x="320" y="640"/><rect style="fill:none;fill-opacity:0;stroke-width:2;stroke:#000" width="220" height="60" x="320" y="640"/><text style="fill:#000;text-anchor:middle;font-family:sans-serif;font-style:normal;font-weight:400" x="430" y="673.881" font-size="12.8"><tspan x="430" y="673.881">MinmumEigensolver(Factory)</tspan></text></g><g><rect style="fill:#fff" width="220" height="60" x="640" y="640"/><rect style="fill:none;fill-opacity:0;stroke-width:2;stroke-dasharray:10;stroke:#000" width="220" height="60" x="640" y="640"/><text style="fill:#000;text-anchor:middle;font-family:sans-serif;font-style:italic;font-weight:400" x="750" y="673.881" font-size="12.8"><tspan x="750" y="673.881">AlgorithmResult</tspan></text></g><g><line style="fill:none;fill-opacity:0;stroke-width:2;stroke:#000" x1="-20" x2="70.264" y1="670" y2="670"/><polygon style="fill:#000" points="77.764 670 67.764 675 70.264 670 67.764 665"/><polygon style="fill:none;fill-opacity:0;stroke-width:2;stroke:#000" points="77.764 670 67.764 675 70.264 670 67.764 665"/></g><g><line style="fill:none;fill-opacity:0;stroke-width:2;stroke:#000" x1="540" x2="629.259" y1="670" y2="670"/><polygon style="fill:#000" points="636.759 670 626.759 675 629.259 670 626.759 665"/><polygon style="fill:none;fill-opacity:0;stroke-width:2;stroke:#000" points="636.759 670 626.759 675 629.259 670 626.759 665"/></g><g><polyline style="fill:none;fill-opacity:0;stroke-width:2;stroke:#000" points="150 720 150 830 170.264 830"/><polygon style="fill:#000" points="177.764 830 167.764 835 170.264 830 167.764 825"/><polygon style="fill:none;fill-opacity:0;stroke-width:2;stroke:#000" points="177.764 830 167.764 835 170.264 830 167.764 825"/></g><g><polyline style="fill:none;fill-opacity:0;stroke-width:2;stroke:#000" points="290 800 290 670 310.264 670"/><polygon style="fill:#000" points="317.764 670 307.764 675 310.264 670 307.764 665"/><polygon style="fill:none;fill-opacity:0;stroke-width:2;stroke:#000" points="317.764 670 307.764 675 310.264 670 307.764 665"/></g></svg>